<svg width="200" height="100" viewBox="0 0 200 100" xmlns="http://www.w3.org/2000/svg">
  <!-- Background -->
  <rect width="200" height="100" rx="20" fill="#000000"/>
  
  <!-- Piano Keys Container -->
  <g transform="translate(20, 20)">
    <!-- White Keys -->
    <rect x="0" y="0" width="18" height="60" fill="#ffffff" stroke="#cccccc" stroke-width="0.5"/>
    <rect x="18" y="0" width="18" height="60" fill="#ffffff" stroke="#cccccc" stroke-width="0.5"/>
    <rect x="36" y="0" width="18" height="60" fill="#ffffff" stroke="#cccccc" stroke-width="0.5"/>
    <rect x="54" y="0" width="18" height="60" fill="#ffffff" stroke="#cccccc" stroke-width="0.5"/>
    <rect x="72" y="0" width="18" height="60" fill="#ffffff" stroke="#cccccc" stroke-width="0.5"/>
    <rect x="90" y="0" width="18" height="60" fill="#ffffff" stroke="#cccccc" stroke-width="0.5"/>
    <rect x="108" y="0" width="18" height="60" fill="#ffffff" stroke="#cccccc" stroke-width="0.5"/>
    
    <!-- Black Keys -->
    <rect x="13" y="0" width="10" height="38" rx="2" fill="#1a1a1a"/>
    <rect x="31" y="0" width="10" height="38" rx="2" fill="#1a1a1a"/>
    <rect x="67" y="0" width="10" height="38" rx="2" fill="#1a1a1a"/>
    <rect x="85" y="0" width="10" height="38" rx="2" fill="#1a1a1a"/>
    <rect x="103" y="0" width="10" height="38" rx="2" fill="#1a1a1a"/>
  </g>
  
  <!-- Bass Clef -->
  <g transform="translate(150, 25)">
    <!-- Main curve of bass clef -->
    <path d="M 0 20 Q 15 5 25 20 Q 15 35 0 20 Q 8 15 8 20 Q 8 25 0 20" fill="#ffffff" stroke="#ffffff" stroke-width="1"/>
    <!-- Two dots -->
    <circle cx="30" cy="15" r="2" fill="#ffffff"/>
    <circle cx="30" cy="25" r="2" fill="#ffffff"/>
  </g>
</svg>